<region> key=60 sample=C4.wav
<region> key=61 sample=C#4.wav
<region> key=62 sample=D4.wav
<region> key=63 sample=D#4.wav
<region> key=64 sample=E4.wav
<region> key=65 sample=F4.wav
<region> key=66 sample=F#4.wav
<region> key=67 sample=G4.wav
<region> key=68 sample=G#4.wav
<region> key=69 sample=A4.wav
<region> key=70 sample=A#4.wav
<region> key=71 sample=B4.wav